<svg width="124" height="118" viewBox="0 0 124 118" fill="none" xmlns="http://www.w3.org/2000/svg">
<path d="M115.407 0.0107692V3.40943H117.056V5.05773C117.603 5.06391 118.156 5.04845 118.704 5.05773C118.713 6.73798 118.698 8.42443 118.704 10.1047H120.353V24.9878L120.508 25.1425H122.002V33.3304C122.439 33.6056 123.205 33.4819 123.754 33.485C123.766 40.6926 123.744 47.9063 123.754 55.1139H122.156L122.002 55.2686V76.8459H120.353V88.5871H118.704V96.9297H117.056V100.225H115.407C115.4 101.905 115.416 103.592 115.407 105.272C114.825 105.278 114.238 105.268 113.655 105.272V106.92H112.007V108.569H105.31V106.92C104.762 106.914 104.21 106.93 103.661 106.92C103.646 104.691 103.672 102.455 103.661 100.225C103.114 100.219 102.56 100.235 102.012 100.225C102.007 96.3472 102.013 92.4641 102.012 88.5871C102.56 88.5779 103.113 88.5933 103.661 88.5871V63.4565H102.012V61.8082H98.7676L98.613 61.9628V63.4565H96.9643C96.9612 64.0389 96.9684 64.6254 96.9643 65.2078C96.4168 65.2171 95.8641 65.2017 95.3156 65.2078V66.8561H93.6669C93.6638 68.5364 93.671 70.2228 93.6669 71.9031C93.0843 71.9093 92.4977 71.899 91.9151 71.9031V76.847H90.2664V93.532H88.6177C88.6115 97.444 88.627 101.361 88.6177 105.273C88.0702 105.282 87.5176 105.267 86.969 105.273V108.569H85.3204C85.3142 109.7 85.3286 110.837 85.3204 111.967C84.1893 111.976 83.052 111.961 81.9209 111.967V113.616H78.6246V115.264H75.3798L75.2251 115.419V117.015C71.3462 117 67.4622 117.037 63.5833 117.015C63.5771 116.433 63.5874 115.846 63.5833 115.264H61.9346V113.616H60.1828V106.922C59.6353 106.915 59.0827 106.931 58.5341 106.922C58.529 101.361 58.5383 95.7968 58.5341 90.2365H56.8854V91.8848H53.6407L53.486 92.0394V93.5331H51.992C51.7105 93.9732 51.8476 94.7319 51.8373 95.2845C49.6071 95.2948 47.3707 95.2772 45.1405 95.2845C45.1343 95.8318 45.1498 96.3854 45.1405 96.9328C42.3607 96.9369 39.5758 96.9389 36.796 96.9328C36.7867 96.3854 36.8022 95.8318 36.796 95.2845C35.1494 95.2793 33.4976 95.2927 31.85 95.2845C31.8397 94.733 31.9768 93.9743 31.6953 93.5331H30.0982V91.8848H28.4495V90.2365H26.8008V86.9409H25.1521V83.5422H23.5034V78.6499L23.3488 78.4953H21.7517V61.8102H15.2095L15.0548 61.9648V63.4585H5.0689V61.8102H3.42021V60.1619H1.77153V58.5136C1.18897 58.5095 0.602292 58.5198 0.0197363 58.5136C-0.00500945 53.5048 -0.00810267 48.4857 0.0197363 43.4758C0.602292 43.4696 1.18897 43.48 1.77153 43.4758V41.8275H3.42021C3.4264 40.6967 3.41196 39.5597 3.42021 38.4289C3.96771 38.4196 4.5214 38.4351 5.0689 38.4289C5.07508 37.8815 5.05962 37.3279 5.0689 36.7806C5.6164 36.7713 6.17008 36.7868 6.71758 36.7806C6.72377 36.2332 6.7083 35.6796 6.71758 35.1323C7.30014 35.1261 7.88682 35.1364 8.46937 35.1323V33.484H11.7657V31.7326H13.4144C13.4206 31.1852 13.4051 30.6327 13.4144 30.0843C14.5465 30.0812 15.6828 30.0863 16.8149 30.0843C16.8211 29.5369 16.8056 28.9834 16.8149 28.436C17.9119 28.4329 19.0142 28.438 20.1122 28.436C20.1153 27.8876 20.1061 27.3351 20.1122 26.7877C21.0361 26.7825 22.2847 26.8949 23.157 26.7928C23.3065 26.7753 23.422 26.7805 23.5127 26.6331V25.1394H26.8091V23.388H30.1054V21.7397H36.8022V20.0914H43.499C43.5032 19.544 43.4939 18.9915 43.499 18.4431C45.7292 18.44 47.9656 18.4452 50.1958 18.4431C50.1989 17.8607 50.1897 17.2741 50.1958 16.6917C54.1088 16.6866 58.0279 16.6958 61.9408 16.6917V15.0434H80.2795V16.6917H81.9281V18.4431C83.0592 18.4493 84.1965 18.4348 85.3276 18.4431C85.3379 18.9905 85.3204 19.544 85.3276 20.0914H86.9763C86.9855 20.6388 86.9701 21.1913 86.9763 21.7387H90.2726V10.1006H91.8697L92.0244 9.94593V8.34917H93.6731C93.6793 7.25237 93.6648 6.15041 93.6731 5.0536C94.2216 5.04845 94.7743 5.05773 95.3218 5.0536C95.3249 4.5052 95.3156 3.95267 95.3218 3.4053C96.4188 3.39705 97.521 3.41149 98.6181 3.4053V1.80854L98.7728 1.65392H102.018V0.0107692C106.48 0.03654 110.949 -0.0232483 115.41 0.0107692H115.407ZM115.407 6.705H113.655V8.3533H112.007V10.1047H115.251L115.406 9.95006V6.70603L115.407 6.705ZM102.014 8.3533H100.366V10.0016H98.7686L98.614 10.1562V11.753H102.013V8.35433L102.014 8.3533ZM112.008 13.3992H105.311V15.0475H112.008V13.3992ZM66.8827 30.0853C66.3342 30.0894 65.7815 30.0822 65.234 30.0853C65.2289 31.2172 65.2433 32.3531 65.234 33.485C64.6865 33.4943 64.1328 33.4788 63.5854 33.485C63.5792 34.0324 63.5946 34.5859 63.5854 35.1333C62.4532 35.1415 61.317 35.1271 60.1849 35.1333C60.1787 35.6807 60.1942 36.2342 60.1849 36.7816C57.9887 36.7919 55.7874 36.7744 53.5912 36.7816V35.1333C53.0086 35.1364 52.4219 35.1302 51.8394 35.1333C51.8301 34.5859 51.8456 34.0334 51.8394 33.485H50.1907V31.7336H48.542C48.5348 33.4139 48.5513 35.1003 48.542 36.7806C47.9945 36.7898 47.4419 36.7744 46.8933 36.7806V40.0761H45.2962C45.0147 40.5163 45.1518 41.275 45.1415 41.8275C44.0445 41.8347 42.9412 41.8224 41.8442 41.8275C41.838 42.3749 41.8534 42.9285 41.8442 43.4758C41.2956 43.4789 40.744 43.4727 40.1955 43.4758C40.1862 42.9285 40.2017 42.3759 40.1955 41.8275H36.9507L36.796 41.6729V38.4289H35.1473V43.4758H33.4987C33.4894 45.1561 33.5121 46.8425 33.4987 48.5228C32.9512 48.5321 32.3985 48.5166 31.85 48.5228V50.0165L31.6953 50.1711H30.0982C30.092 50.7185 30.1075 51.271 30.0982 51.8194C28.4516 51.8307 26.7998 51.8111 25.1532 51.8194V50.1711H23.5045V48.5228H21.7527V51.8184H23.4014V53.4667H30.0982C30.1044 52.9193 30.0889 52.3668 30.0982 51.8184C30.6807 51.8142 31.2674 51.8215 31.85 51.8184V50.1701H33.4987C33.5018 49.6227 33.4945 49.0702 33.4987 48.5218C34.0462 48.5125 34.5988 48.5279 35.1473 48.5218V45.1231H36.796V43.4748C37.9281 43.4707 39.0644 43.48 40.1955 43.4748C40.2048 44.0222 40.1893 44.5747 40.1955 45.1231H41.8442C41.8503 44.5757 41.8349 44.0232 41.8442 43.4748C42.9412 43.4696 44.0445 43.4789 45.1415 43.4748C45.1477 42.9274 45.1312 42.3739 45.1415 41.8265C45.7241 41.8224 46.3108 41.8296 46.8933 41.8265V40.1782H48.3873C48.5348 40.0875 48.5296 39.9731 48.5472 39.8226C48.6492 38.9505 48.5369 37.7032 48.542 36.7785C49.0895 36.7692 49.6422 36.7847 50.1907 36.7785V35.1302C50.7382 35.1281 51.2908 35.1333 51.8394 35.1302C51.8487 35.6776 51.8332 36.2301 51.8394 36.7785H53.4881V38.4268H60.1849C60.1911 37.8794 60.1756 37.3269 60.1849 36.7785C61.317 36.7734 62.4532 36.7816 63.5854 36.7785C63.5915 36.2311 63.5761 35.6776 63.5854 35.1302C64.1339 35.1261 64.6865 35.1333 65.234 35.1302C65.2361 34.5818 65.2289 34.0293 65.234 33.4819C65.7815 33.4726 66.3352 33.4881 66.8827 33.4819C66.8858 32.3501 66.8765 31.2141 66.8827 30.0822C68.0138 30.074 69.1511 30.0853 70.2822 30.0822C70.2863 30.6296 70.2791 31.1821 70.2822 31.7305H76.979V30.0822H78.6277C78.6328 28.9854 78.6204 27.8835 78.6277 26.7866C79.1752 26.7815 79.7278 26.7908 80.2764 26.7866V25.0353H78.6277C78.6246 25.6177 78.6318 26.2042 78.6277 26.7866C78.0451 26.7928 77.4584 26.7825 76.8759 26.7866V28.435H75.2272V30.0833C73.5806 30.0863 71.9288 30.0791 70.2822 30.0833C70.2739 28.9864 70.2884 27.8845 70.2822 26.7877H68.6335V25.1909C68.4634 24.9538 67.1116 24.9878 66.9786 25.0817L66.8961 25.2054C66.8642 26.831 66.8889 28.4587 66.8817 30.0833L66.8827 30.0853ZM75.2282 48.5207C75.7798 48.5104 76.5387 48.6475 76.98 48.3661V46.7693H78.6287V45.121H80.2774V41.8255H78.6287V43.4738H76.8769V46.7693H75.3829C75.1014 47.2095 75.2385 47.9682 75.2282 48.5207C74.6807 48.531 74.127 48.5135 73.5795 48.5207C73.5733 49.0681 73.5888 49.6217 73.5795 50.169C72.4825 50.1773 71.3803 50.1628 70.2832 50.169V51.8173H65.2351V50.169H63.5864V51.8173H61.8346V55.1129H60.3406L60.1859 55.2675V58.5116H58.5372V60.1599H56.8885V61.8082C54.6583 61.8205 52.4219 61.7906 50.1917 61.8082C50.1845 60.7114 50.1969 59.6094 50.1917 58.5126H48.543V56.8643H46.8944V65.0522L46.7397 65.2068H45.1426V68.5024H43.4939V70.1507H41.8452V71.7474L41.6905 71.9021H35.1484V70.1507H31.852V68.5024C31.2695 68.4983 30.6828 68.5086 30.1002 68.5024C30.0899 67.955 30.1075 67.4025 30.1002 66.8541H28.4516V68.5024C28.9991 68.5065 29.5517 68.4972 30.1002 68.5024C30.1106 69.0539 29.9734 69.8126 30.2549 70.2538H31.852V71.9021H33.5007V73.5504H43.4939V71.9021H45.1426V68.658L45.2972 68.5034H46.8944V65.2078H48.543V61.8092C49.0905 61.8061 49.6432 61.8133 50.1917 61.8092C50.1958 62.3916 50.1886 62.9782 50.1917 63.5606H51.8404V65.2089H53.4375L53.5922 65.0543V63.5606H58.5372V61.9638L58.6919 61.8092H60.1859V60.3155L60.3406 60.1609H61.9377V56.8653H63.5864V53.4667H71.9309V51.8184H73.5795C73.5857 51.271 73.5703 50.7185 73.5795 50.1701C74.1281 50.1659 74.6807 50.1732 75.2282 50.1701C75.2344 49.6227 75.2179 49.0691 75.2282 48.5218V48.5207ZM75.2282 71.901C75.7778 71.8959 76.5418 72.0237 76.98 71.7464V70.2527H78.474L78.6287 70.0981V68.5014H80.2774V65.2058H81.9261V63.4544H78.6297V66.8531H76.8779V70.1486H75.3839C75.1024 70.5888 75.2396 71.3475 75.2293 71.9C74.1322 71.9103 73.03 71.8928 71.9329 71.9V73.5483C69.7027 73.5555 67.4663 73.538 65.2361 73.5483C65.2268 73.0009 65.2423 72.4484 65.2361 71.9H63.5874C63.5843 72.4474 63.5915 72.9999 63.5874 73.5483C63.0049 73.5524 62.4182 73.5452 61.8356 73.5483V78.4922H60.3416L60.1869 78.6468V80.2436H58.5382V81.8919H55.2419V83.5402H48.5451V81.8919H46.8964V85.1874H56.8896V83.5391H60.1859V81.8908H61.9377V78.5953H63.4317C63.5792 78.5046 63.574 78.3901 63.5915 78.2396C63.7493 76.8965 63.575 74.9688 63.5864 73.5483C64.1349 73.5442 64.6865 73.5504 65.2351 73.5483C65.2443 74.0957 65.2289 74.6482 65.2351 75.1966H73.5795V73.5483H75.2282C75.2354 73.0009 75.2179 72.4484 75.2282 71.9V71.901Z" fill="#3B37FF"/>
</svg>
