<svg width="75" height="124" viewBox="0 0 75 124" fill="none" xmlns="http://www.w3.org/2000/svg">
<path d="M23.1322 1.34141C25.8683 1.33385 28.6094 1.34644 31.3455 1.34141V0H43.4981V1.34141H50.2867V2.64087L50.4125 2.7667H53.053V4.10811C53.9457 4.1123 54.8426 4.10223 55.7354 4.10811C55.7396 4.5544 55.732 5.00405 55.7354 5.44951C56.2094 5.45119 56.6868 5.44616 57.1609 5.44951C57.1684 5.89497 57.1559 6.34546 57.1609 6.79092H58.5017V8.13232H59.8424V9.55762H61.1832V10.899H62.524V13.5818H63.8228L63.9487 13.7077V16.3485H65.2895V17.6899C65.735 17.695 66.1847 17.6824 66.6302 17.6899C66.637 19.0582 66.6252 20.4298 66.6302 21.798H67.971V27.1217L68.0969 27.2476H69.3957V31.2718C69.8412 31.2768 70.2909 31.2642 70.7365 31.2718C70.739 32.64 70.7348 34.0116 70.7365 35.3799C71.182 35.3849 71.6326 35.3723 72.0781 35.3799C72.0823 37.1953 72.0747 39.014 72.0781 40.8294H73.4189V48.9617H74.7596V54.4112H73.4189C73.4155 56.2266 73.4231 58.0453 73.4189 59.8607C72.9733 59.8691 72.5236 59.8549 72.0781 59.8607V62.5435H70.7373C70.7356 63.4647 70.7398 64.3891 70.7373 65.3102C70.2918 65.3178 69.8421 65.3052 69.3965 65.3102V66.5258L69.2707 66.6516H67.9719V69.3345H66.6311V70.6759H65.2903C65.2853 71.597 65.297 72.5214 65.2903 73.4426C64.8448 73.4501 64.395 73.4375 63.9487 73.4426C63.9436 73.8889 63.9562 74.3385 63.9487 74.784C63.4998 74.7924 62.8823 74.6808 62.524 74.9098V76.1254H61.1832V78.8921H62.524V81.5749C62.9981 81.5782 63.4755 81.5698 63.9487 81.5749C63.952 82.0489 63.9462 82.5262 63.9487 83.0002H65.2895V87.0244C65.735 87.0294 66.1847 87.0168 66.6302 87.0244C66.6437 92.9194 66.6202 98.8185 66.6302 104.713H67.971C67.9635 106.975 67.9819 109.242 67.971 111.504C67.5255 111.509 67.0758 111.501 66.6294 111.504C66.6252 112.426 66.637 113.351 66.6294 114.271C65.7367 114.278 64.8397 114.266 63.947 114.271C63.942 114.717 63.9546 115.167 63.947 115.613C62.1322 115.622 60.314 115.606 58.4992 115.613V116.954H47.6035V115.613C45.7895 115.602 43.9696 115.626 42.1556 115.613C42.1447 114.244 42.1632 112.872 42.1556 111.504C41.7101 111.499 41.2595 111.512 40.814 111.504C40.809 109.242 40.8182 106.976 40.814 104.713H39.4732V103.372H38.1324V102.031H32.6846V103.246L32.5587 103.372H31.2599V104.713H29.9191C29.9158 105.159 29.9233 105.609 29.9191 106.055C29.4736 106.059 29.0239 106.052 28.5783 106.055V107.396H27.2376C27.2342 108.317 27.2418 109.242 27.2376 110.163C26.792 110.171 26.3423 110.158 25.8968 110.163V115.487L25.7709 115.613H24.4721C24.4595 117.874 24.4889 120.141 24.4721 122.403C24.0266 122.408 23.5769 122.4 23.1305 122.403C23.1255 122.85 23.1381 123.299 23.1305 123.745C19.9757 123.769 16.8142 123.752 13.6595 123.745C13.6519 123.299 13.6645 122.849 13.6595 122.403C12.2919 122.399 10.92 122.41 9.55241 122.403C9.54486 121.958 9.55744 121.507 9.55241 121.062H8.21163V119.763L8.08577 119.637H5.44533V118.295H4.10456V116.954H2.76378V115.613H1.423V111.504H0V106.181L0.125855 106.055H1.42468V96.5812H2.76546C2.76881 94.7658 2.76126 92.947 2.76546 91.1317C3.21098 91.1241 3.66071 91.1367 4.10707 91.1317C4.10875 89.7634 4.10372 88.3918 4.10707 87.0236C4.5526 87.016 5.00232 87.0286 5.44785 87.0236V82.9993H6.74668L6.87253 82.8735V80.2326H8.21331V77.5498H9.55408C9.55576 76.6287 9.55157 75.7042 9.55408 74.7831C9.99961 74.7756 10.4493 74.7882 10.8957 74.7831C10.8999 73.8905 10.889 72.9929 10.8957 72.1003C11.3412 72.0928 11.791 72.1054 12.2365 72.1003V70.7589H13.5353L13.6612 70.6331V66.6508C13.1871 66.6483 12.7097 66.6542 12.2365 66.6508C12.2331 66.2045 12.239 65.7557 12.2365 65.3094H11.0216L10.8957 65.1836V63.8841H8.21331V61.2013H6.87253V58.5604L6.74668 58.4346H5.44785V57.0932C5.00232 57.0882 4.5526 57.1007 4.10707 57.0932C4.1012 55.7535 4.11127 54.4087 4.10707 53.069C3.66155 53.0639 3.21098 53.0765 2.76546 53.069C2.74448 43.9887 2.75707 34.9034 2.76546 25.8231C3.21098 25.8155 3.66071 25.8281 4.10623 25.8231V20.3736H5.44701C5.45205 19.0339 5.44114 17.6891 5.44701 16.3494C5.89589 16.341 6.51342 16.4526 6.87169 16.2235V13.5827H8.21247C8.21415 12.6901 8.20995 11.7925 8.21247 10.8999C8.658 10.8957 9.10772 10.9032 9.55325 10.8999V9.55846H10.894V8.259L11.0199 8.13316H12.2348C12.2398 7.24057 12.2281 6.34294 12.2348 5.45035C13.6024 5.43944 14.9742 5.4579 16.3419 5.45035V4.10894H18.9823L19.1082 3.98311V2.76754H23.1313C23.1347 2.29356 23.1263 1.81622 23.1313 1.34224L23.1322 1.34141ZM36.7103 12.2396H35.3695V13.581H34.0287V15.0063H35.3695V16.3477H36.7103V15.0063H38.0091C38.2608 14.6875 38.0989 14.1212 38.1215 13.7203L38.0091 13.581H36.7103V12.2396ZM50.3714 12.2396H47.606V15.0063H50.2464L50.3723 14.8805V12.2396H50.3714ZM61.1832 17.6891H58.5008V20.3719H59.8416V19.0305H61.1824V17.6891H61.1832ZM48.9467 21.7972C48.054 21.8014 47.1571 21.7947 46.2644 21.7972C46.2593 22.2435 46.2719 22.6932 46.2644 23.1386C45.3439 23.1411 44.4193 23.1369 43.4989 23.1386V24.48H42.1581V25.8214H43.5828V24.48H46.2652C46.2702 24.0346 46.2576 23.5841 46.2652 23.1386C47.1579 23.1361 48.0549 23.1403 48.9476 23.1386C48.9526 22.6923 48.9392 22.2427 48.9476 21.7972C50.3152 21.7905 51.687 21.8022 53.0547 21.7972V24.48H54.3954V25.8214C54.841 25.8248 55.2907 25.8172 55.7362 25.8214C55.7387 26.7425 55.7345 27.667 55.7362 28.5881H57.1609V25.8214C56.6868 25.8181 56.2094 25.8265 55.7362 25.8214C55.7337 24.9288 55.7379 24.032 55.7362 23.1386H54.3954V20.3719H49.0734C48.8444 20.7301 48.956 21.3476 48.9476 21.7972H48.9467Z" fill="#3B37FF"/>
</svg>
