<svg width="117" height="124" viewBox="0 0 117 124" fill="none" xmlns="http://www.w3.org/2000/svg">
<path d="M47.0293 1.40237C48.461 1.39974 49.8962 1.405 51.327 1.40237V0H65.5369V1.40237H66.9405V2.80474H68.3002L68.4319 2.93629V4.20711H78.344V5.56562L78.4757 5.69718H85.4489V7.09955H86.9403V8.50192C87.4064 8.50455 87.8769 8.49841 88.3439 8.50192C88.3474 8.9685 88.3413 9.43771 88.3439 9.90429H89.7475V11.3944H91.1511V14.1991H92.6425V15.6015C93.1086 15.6067 93.58 15.5936 94.0461 15.6015C94.0531 17.0319 94.0409 18.4658 94.0461 19.8963H95.4497V24.1911H96.8533V36.9869H95.4497V39.7917H94.0461C94.0435 41.2221 94.0488 42.656 94.0461 44.0865C93.58 44.0944 93.1095 44.0812 92.6425 44.0865V46.8474L92.5108 46.9789H91.1511V51.186H92.5108L92.6425 51.3176V52.6761H96.8525V53.9469C96.9297 54.0723 97.0271 54.0679 97.1553 54.0828C97.9005 54.1706 98.9574 54.0723 99.7474 54.0785C99.7518 54.5442 99.7439 55.0143 99.7474 55.4808H101.151V56.8832H102.555V58.2417L102.686 58.3733H104.046V59.7756C104.512 59.7809 104.984 59.7678 105.45 59.7756C105.456 60.7088 105.445 61.6472 105.45 62.5804H106.853V64.0705H108.257V66.8752C108.753 66.8787 109.252 66.8699 109.748 66.8752C109.752 67.3418 109.746 67.8119 109.748 68.2776C110.215 68.2828 110.686 68.2697 111.152 68.2776C111.159 69.2405 111.147 70.207 111.152 71.17C111.619 71.1753 112.089 71.1621 112.555 71.17C112.559 71.6366 112.553 72.1067 112.555 72.5724C113.022 72.575 113.493 72.5671 113.959 72.5724C113.966 73.5055 113.954 74.444 113.959 75.3771H115.319L115.45 75.5087V82.5635H116.854V93.8693H115.45C115.445 94.8322 115.458 95.7987 115.45 96.7617C114.954 96.767 114.455 96.7582 113.959 96.7617V98.1641H112.555V99.5664H111.152V101.057H109.748V102.459H108.257V103.861H104.047V105.264H91.2846L91.1529 105.395V115.255H89.7493C89.744 116.218 89.7563 117.184 89.7493 118.147C89.2832 118.156 88.8118 118.141 88.3457 118.147C88.3404 118.614 88.3536 119.084 88.3457 119.55C87.8796 119.557 87.4082 119.544 86.9421 119.55C86.9368 120.016 86.95 120.486 86.9421 120.952C85.5113 120.962 84.0752 120.944 82.6444 120.952V122.354C80.7457 122.347 78.8417 122.364 76.943 122.354C76.9386 121.888 76.9465 121.418 76.943 120.952C76.0091 120.948 75.0698 120.959 74.1358 120.952C74.1288 120.019 74.1411 119.08 74.1358 118.147H72.7761L72.6444 118.016V108.156C72.1783 108.153 71.7078 108.16 71.2408 108.156C71.2373 107.689 71.2435 107.22 71.2408 106.754H69.8372V105.264H62.7323C62.7297 105.759 62.7358 106.258 62.7323 106.754C62.2363 106.757 61.7369 106.751 61.2409 106.754V108.156H59.8373V113.853H58.4337V119.55H57.0301V120.953H54.1351V122.355H48.5655L48.4338 122.487V123.758H45.6266V122.355C44.6628 122.353 43.6954 122.358 42.7316 122.355C42.7228 121.889 42.7377 121.418 42.7316 120.953H41.328V119.55C40.8619 119.545 40.3905 119.558 39.9244 119.55C39.9209 119.084 39.927 118.614 39.9244 118.148C39.4583 118.143 38.9869 118.157 38.5208 118.148C38.5138 117.185 38.5261 116.219 38.5208 115.256C38.0248 115.253 37.5254 115.261 37.0294 115.256C37.0241 114.322 37.0329 113.384 37.0294 112.451C36.5624 112.446 36.0919 112.459 35.6258 112.451C35.6232 111.488 35.6276 110.521 35.6258 109.558C35.1588 109.553 34.6883 109.566 34.2222 109.558C34.2196 108.624 34.2239 107.687 34.2222 106.754C33.7561 106.748 33.2847 106.762 32.8186 106.754C32.816 105.791 32.8203 104.824 32.8186 103.861C30.919 103.861 29.016 103.864 27.1164 103.861C27.112 103.395 27.1199 102.925 27.1164 102.459C25.2168 102.456 23.3138 102.463 21.4142 102.459C21.4063 101.993 21.4195 101.522 21.4142 101.057C19.9825 101.055 18.5473 101.06 17.1156 101.057C17.1103 100.561 17.1191 100.062 17.1156 99.5664H12.8179V98.1641H11.4143V96.7617H8.60706V95.3593C7.64324 95.3541 6.6759 95.3664 5.71207 95.3593C5.70681 94.8638 5.71559 94.3648 5.71207 93.8693H4.30847V92.4669C3.84236 92.4634 3.37186 92.4713 2.90486 92.4669C2.89872 91.5337 2.90925 90.5953 2.90486 89.6622C2.40891 89.6595 1.90944 89.6674 1.41348 89.6622C1.40646 88.2317 1.41875 86.7978 1.41348 85.3673C0.946489 85.3621 0.475988 85.3752 0.00987527 85.3673C-0.00329176 79.6728 -0.00329176 73.9721 0.00987527 68.2767C0.475988 68.2688 0.946489 68.2819 1.41348 68.2767V64.0696H2.77319L2.90486 63.938V61.1771H4.30847C4.31374 59.7467 4.30145 58.3128 4.30847 56.8823C4.77458 56.8744 5.24596 56.8876 5.71207 56.8823C5.71646 55.9492 5.70505 55.0107 5.71207 54.0776C6.17819 54.0697 6.64869 54.0828 7.11568 54.0776V52.6752H8.47539L8.60706 52.5437V51.1851H10.0107C10.0159 50.252 10.0036 49.3136 10.0107 48.3804C10.4768 48.3725 10.9482 48.3857 11.4143 48.3804C11.4169 47.9138 11.409 47.4437 11.4143 46.978C11.8804 46.9702 12.3509 46.9833 12.8179 46.978V45.6195L12.9495 45.488H14.3093V44.0856H15.7129C15.7181 43.6199 15.705 43.1489 15.7129 42.6832C16.1799 42.6788 16.6504 42.6867 17.1165 42.6832C17.1182 42.2167 17.1121 41.7466 17.1165 41.2809C17.5826 41.273 18.0531 41.2861 18.5201 41.2809V39.9223L18.6517 39.7908H20.0115V38.3884H21.4151V36.9861H22.8187V35.5837H24.2223V34.0936H22.8187V31.2889C22.3526 31.2854 21.8821 31.2933 21.4151 31.2889C21.4203 29.3919 21.4107 27.4896 21.4151 25.5917C21.8812 25.5873 22.3517 25.5952 22.8187 25.5917V22.787H24.2223V19.8945H25.7137V17.0898H26.9856C27.2217 16.717 27.1129 16.0672 27.1173 15.5997C27.5834 15.5909 28.0548 15.6058 28.5209 15.5997V14.1973H29.9245V12.795H31.4159V11.3926H32.6878C32.9274 11.0181 32.8107 10.3726 32.8195 9.90253C33.2865 9.89902 33.757 9.90516 34.2231 9.90253C34.2283 9.43595 34.2152 8.96586 34.2231 8.50016C35.157 8.49315 36.0954 8.50542 37.0303 8.50016V7.09779H38.5217V5.69542H41.3289V4.33691L41.4605 4.20535H44.2239V2.80298H47.0311C47.0363 2.33728 47.0232 1.86632 47.0311 1.40061L47.0293 1.40237ZM54.1342 21.2969H51.327V24.1893H54.1342V21.2969ZM64.1342 24.1893H66.8975L67.0291 24.0578V21.4284L66.8975 21.2969H64.1342V24.1893ZM48.4329 28.3964H47.0293V31.2889H48.4329V32.6912H49.8365V34.0498L49.9682 34.1813H51.3279V35.5837H59.8364V34.1813H62.7314V35.5837H71.24V34.1813H72.6436V32.8228L72.7752 32.6912H74.1349V31.2889H75.5386V29.8865H72.6436V31.2889H71.24V32.6912H69.8364V34.0936H62.7314V31.2889H61.3278V29.8865H59.8364V32.6912H58.4328V34.0936H51.3279V32.6912H49.9243V29.8865H48.5646L48.4329 29.755V28.3964ZM37.0294 72.568C37.0233 71.3831 36.8933 69.6957 37.025 68.5757C37.0399 68.4486 37.0355 68.3504 37.1611 68.2732H38.5208V65.4684H37.0294V68.2732H35.6258V72.568C36.0919 72.5715 36.5624 72.5636 37.0294 72.568C37.0338 73.5011 37.0259 74.4387 37.0294 75.3727H39.7927L39.9244 75.5043V76.8628H42.7316V75.5043L42.8633 75.3727H45.6266V73.9704H47.0302V69.7632H48.4338V66.8708H47.0302V69.6755H45.6266V72.568H44.223V73.9704H42.7316V75.3727H41.328V73.9704H38.5208V72.568C38.0248 72.5645 37.5254 72.5732 37.0294 72.568Z" fill="#3B37FF"/>
</svg>
