<svg width="96" height="124" viewBox="0 0 96 124" fill="none" xmlns="http://www.w3.org/2000/svg">
<path d="M66.3495 0.00508247C66.3559 0.488767 66.3449 0.976087 66.3495 1.45886C70.7715 1.46614 75.1972 1.44795 79.6192 1.45886C79.6274 1.94164 79.6137 2.42987 79.6192 2.91264C81.072 2.91719 82.5293 2.90537 83.9821 2.91264C83.9903 3.39542 83.9766 3.88274 83.9821 4.36642H85.4367V5.77474C85.8251 6.02295 86.4947 5.90203 86.9813 5.91112C86.985 6.3948 86.9786 6.88212 86.9813 7.3649C87.4644 7.37035 87.9529 7.35672 88.4359 7.3649C88.4432 8.33227 88.4305 9.30509 88.4359 10.2725C88.919 10.2779 89.4075 10.2643 89.8905 10.2725C89.8933 11.2707 89.8887 12.2727 89.8905 13.2709C90.3745 13.2737 90.8621 13.2655 91.3451 13.2709C91.3479 14.2383 91.3433 15.2102 91.3451 16.1785H92.7543L92.8907 16.3149V17.6323C93.3738 17.6377 93.8614 17.6241 94.3453 17.6323C94.3526 19.1151 94.3399 20.6017 94.3453 22.0845C94.8284 22.09 95.3169 22.0763 95.7999 22.0845C95.8217 31.8946 95.7835 41.7101 95.7999 51.5211H94.3453V52.9294L94.2089 53.0658H91.346C91.3406 53.5485 91.3542 54.0368 91.346 54.5195C86.9249 54.5295 82.4984 54.5123 78.0764 54.5195V55.9733H81.0756V57.4271C81.5587 57.4326 82.0463 57.4189 82.5302 57.4271C82.5275 57.9408 82.5329 58.4581 82.5302 58.9718H83.9848V61.8794H85.4394V63.3331C85.9534 63.3368 86.471 63.3277 86.9841 63.3331C86.9868 64.3314 86.9822 65.3333 86.9841 66.3316H88.4387V69.2392H89.8933C89.8796 71.6903 89.9115 74.1469 89.8933 76.5981C89.4102 76.6063 88.9217 76.5926 88.4387 76.5981C88.4359 77.0818 88.4441 77.5691 88.4387 78.0519C87.9556 78.0601 87.4671 78.0464 86.9841 78.0519C86.9813 78.5656 86.9895 79.0829 86.9841 79.5966C86.4701 79.602 85.9525 79.5929 85.4394 79.5966V81.0503H75.169V79.5966H73.7144V86.9555C74.1974 86.9609 74.685 86.9473 75.169 86.9555C75.1635 89.4075 75.1735 91.8632 75.169 94.3153C75.652 94.3207 76.1405 94.3071 76.6236 94.3153C76.6272 95.7982 76.6208 97.2847 76.6236 98.7666H78.0782V103.128C78.5921 103.132 79.1098 103.123 79.6228 103.128C79.6283 107.063 79.6419 111.004 79.6228 114.939C79.1089 114.945 78.5912 114.935 78.0782 114.939V117.847H76.6236C76.6181 118.845 76.6309 119.847 76.6236 120.845C76.1405 120.853 75.652 120.84 75.169 120.845C75.1635 121.329 75.1772 121.816 75.169 122.299C73.6862 122.31 72.1979 122.291 70.7151 122.299C70.7124 122.783 70.7206 123.27 70.7151 123.753C67.7786 123.759 64.8358 123.759 61.8993 123.753C61.8947 123.269 61.9029 122.782 61.8993 122.299C60.4165 122.294 58.9282 122.307 57.4454 122.299C57.4372 121.816 57.4509 121.328 57.4454 120.845C56.4775 120.841 55.505 120.853 54.5362 120.845C54.528 120.362 54.5417 119.874 54.5362 119.391C54.0523 119.39 53.5656 119.396 53.0816 119.391C53.0725 118.905 53.1935 118.236 52.9452 117.847H51.627V116.393C50.6291 116.389 49.6257 116.397 48.6278 116.393C48.6196 115.91 48.6332 115.423 48.6278 114.939H45.7195V113.485H38.2673V114.939H35.359V116.393H33.9044C33.9007 116.876 33.9089 117.363 33.9044 117.847C32.9346 117.852 31.9585 117.809 30.9906 117.887C30.8369 117.994 30.9106 119.116 30.9051 119.391C29.9372 119.394 28.9647 119.39 27.9968 119.391V120.845H24.9976V122.299C22.0602 122.288 19.1182 122.314 16.1817 122.299C16.1735 121.816 16.1872 121.328 16.1817 120.845C15.2138 120.844 14.2413 120.849 13.2725 120.845C13.2643 120.362 13.278 119.875 13.2725 119.391H11.8179V117.983L11.6815 117.847H10.2724V116.393C9.78931 116.387 9.30171 116.401 8.81776 116.393C8.81048 114.911 8.82321 113.424 8.81776 111.942H7.36316V109.034H8.81776C8.82321 107.552 8.81048 106.065 8.81776 104.583C9.3008 104.574 9.78931 104.588 10.2724 104.583C10.2751 103.615 10.2669 102.642 10.2724 101.675C10.7863 101.67 11.3039 101.679 11.817 101.675V100.221H13.2716C13.2743 98.7384 13.2689 97.2519 13.2716 95.77C13.7547 95.7654 14.2423 95.7736 14.7262 95.77V92.8624H16.1808C16.1754 91.3805 16.1881 89.893 16.1808 88.4111C16.6639 88.4029 17.1515 88.4165 17.6354 88.4111V84.0952L17.7719 83.9588H19.181V82.505H16.1817V83.9588H14.7271V85.4126H8.81957C8.81594 85.9263 8.82503 86.4436 8.81957 86.9573C8.33653 86.9537 7.84893 86.96 7.36498 86.9573V85.4126H4.36572V83.9588H2.91112V72.2386H4.36572C4.37208 70.7566 4.35753 69.2692 4.36572 67.7872C4.87969 67.7818 5.39731 67.7909 5.91038 67.7872V64.8797H7.36498V63.335H8.81957C8.82412 62.3676 8.81321 61.3957 8.81957 60.4274C9.30262 60.4192 9.79022 60.4329 10.2742 60.4274V58.9736H11.6833L11.8197 58.8373V57.4289H13.2743V55.9751H14.7289V54.5214H16.1835V51.5229H7.3677C7.36407 52.0366 7.37316 52.5539 7.3677 53.0676C4.91517 53.064 2.45809 53.0694 0.00555596 53.0676C0.0210207 44.7104 -0.0126379 36.3487 0.00555596 27.9915C0.489513 27.9906 0.976199 27.9915 1.46016 27.9915C1.4647 26.5086 1.45197 25.0221 1.46016 23.5392C1.9432 23.531 2.43171 23.5447 2.91476 23.5392C2.9193 22.5719 2.90657 21.599 2.91476 20.6317C3.3978 20.6235 3.88631 20.6371 4.36936 20.6317C4.37481 20.148 4.36026 19.6607 4.36936 19.1779C4.64499 19.1724 5.76755 19.247 5.8749 19.0924C5.95586 18.6124 5.90583 18.1169 5.91492 17.6332C6.39797 17.6241 6.88648 17.6395 7.36952 17.6332C7.37498 17.1495 7.36134 16.6622 7.36952 16.1794C7.85257 16.1712 8.34108 16.1849 8.82412 16.1794C8.82958 15.6957 8.81594 15.2084 8.82412 14.7256C9.30717 14.7174 9.79568 14.7311 10.2787 14.7256C10.2842 14.2419 10.2696 13.7546 10.2787 13.2718C10.7654 13.2628 11.4349 13.3837 11.8234 13.1355V11.8181H13.1415C13.3899 11.4298 13.2689 10.7607 13.278 10.2734C14.2459 10.2643 15.2184 10.2797 16.1863 10.2734V8.81959H17.6409V7.36581H20.6401C20.6438 6.88303 20.6356 6.39571 20.6401 5.91203C21.608 5.90748 22.5805 5.91476 23.5493 5.91203C23.5521 5.39834 23.5439 4.88102 23.5493 4.36733C24.5482 4.3646 25.5507 4.36915 26.5486 4.36733C26.554 3.88365 26.5404 3.39633 26.5486 2.91355C28.5163 2.90446 30.4885 2.91992 32.457 2.91355C32.4625 2.42987 32.4489 1.94255 32.457 1.45977C35.3944 1.45613 38.3364 1.4625 41.2738 1.45977C41.2765 0.976087 41.2692 0.488767 41.2738 0.00599165C49.6248 -0.00400933 57.9894 0.000536571 66.3495 0.00508247ZM39.8101 26.5341H36.8108V32.4392H38.22L38.3564 32.3028V29.4407H39.811V26.5332L39.8101 26.5341ZM60.4419 26.5341H57.4427V29.4416H58.8973V32.3037L59.0337 32.4401H60.4429V26.535L60.4419 26.5341ZM35.3572 41.2519C35.338 38.8007 35.3717 36.3441 35.3572 33.893H33.9026V41.2519C34.3856 41.2546 34.8732 41.2482 35.3572 41.2519C35.3608 41.7347 35.3544 42.222 35.3572 42.7057H61.8956C61.9011 42.2229 61.8874 41.7347 61.8956 41.2519C62.8635 41.2473 63.836 41.2546 64.8048 41.2519C64.8067 40.7682 64.8003 40.2809 64.8048 39.7981C65.3188 39.7945 65.8364 39.8008 66.3495 39.7981V36.7996H64.8048C64.7994 37.7979 64.8121 38.7998 64.8048 39.7981C63.8369 39.8045 62.8645 39.7936 61.8956 39.7981C61.8902 40.2818 61.9038 40.7691 61.8956 41.2519C53.0552 41.2955 44.1966 41.3201 35.3572 41.2519ZM47.1722 75.1407C46.1743 75.1479 45.1709 75.1352 44.173 75.1407V76.5945H42.7184C42.7157 77.0781 42.722 77.5646 42.7184 78.0482C42.2353 78.0564 41.7468 78.0428 41.2638 78.0482C41.2611 79.0465 41.2693 80.0484 41.2638 81.0467C40.7807 81.0549 40.2931 81.0413 39.8092 81.0467V83.9543C40.2922 83.9597 40.7798 83.9461 41.2638 83.9543C41.2683 84.9525 41.2602 85.9545 41.2638 86.9527C41.7477 86.9546 42.2344 86.9482 42.7184 86.9527C42.722 87.4364 42.7157 87.9228 42.7184 88.4065H50.0805C50.0869 87.9238 50.0714 87.4355 50.0805 86.9527C50.5654 86.9482 51.2395 87.0609 51.6252 86.8164V85.499H52.9433C53.1881 85.1126 53.0753 84.4389 53.0798 83.9543C53.5628 83.9452 54.0504 83.9606 54.5344 83.9543V81.0467C54.0514 81.0431 53.5638 81.0513 53.0798 81.0467C53.0753 80.2312 53.1744 79.132 53.0843 78.3619C53.0689 78.2301 53.0734 78.1282 52.9433 78.0482H47.1722C47.1695 78.5619 47.1759 79.0792 47.1722 79.5929C46.6583 79.5966 46.1407 79.5902 45.6276 79.5929V83.9543H47.1722C47.1795 82.5023 47.1622 81.0458 47.1722 79.5929C48.625 79.5829 50.0824 79.6002 51.5351 79.5929V81.0467C52.0491 81.0503 52.5667 81.0413 53.0798 81.0467C53.0853 82.0141 53.0889 82.9869 53.0798 83.9543C52.5931 83.9634 51.9236 83.8424 51.5351 84.0906V85.4081H50.217C49.9686 85.7963 50.0896 86.4654 50.0805 86.9527C47.6307 86.9764 45.1691 86.9709 42.7184 86.9527C42.7111 85.9545 42.7238 84.9525 42.7184 83.9543C42.2353 83.9488 41.7468 83.9625 41.2638 83.9543C41.2592 82.9869 41.2592 82.0141 41.2638 81.0467C41.7468 81.0385 42.2353 81.0522 42.7184 81.0467C42.7229 80.0484 42.7102 79.0465 42.7184 78.0482C43.2014 78.0401 43.689 78.0537 44.173 78.0482V76.7308L44.3094 76.5945H47.1722C47.1777 76.1117 47.1641 75.6234 47.1722 75.1407C47.6553 75.137 48.1429 75.1434 48.6268 75.1407V73.6869H47.1722C47.1668 74.1697 47.1804 74.6579 47.1722 75.1407Z" fill="#3B37FF"/>
</svg>
