<svg width="122" height="107" viewBox="0 0 122 107" fill="none" xmlns="http://www.w3.org/2000/svg">
<path d="M82.6621 0.00510709C84.954 -0.00595827 87.251 0.0136189 89.5429 0.00510709V1.36615H96.4237V2.72719C97.3572 2.72889 98.294 2.72463 99.2274 2.72719C99.2325 3.20811 99.224 3.69243 99.2274 4.17335H100.587V5.53439H101.946V6.89543H103.39V8.25647H104.75V9.61751H106.109V11.0637H107.468V13.7857H108.828V15.1468C109.308 15.1502 109.792 15.1417 110.272 15.1468C110.279 16.0814 110.267 17.0194 110.272 17.954C110.724 17.9591 111.18 17.9463 111.631 17.954C111.634 18.8596 111.63 19.7704 111.631 20.6761C112.084 20.6812 112.539 20.6684 112.991 20.6761C113.002 22.9709 112.983 25.2707 112.991 27.5655C113.443 27.5681 113.899 27.5604 114.35 27.5655C114.353 29.4075 114.348 31.2529 114.35 33.094C114.83 33.0965 115.314 33.0888 115.794 33.094C115.798 34.4814 115.792 35.8739 115.794 37.2613H117.154V45.511H118.513V59.2891C118.965 59.295 119.421 59.2806 119.873 59.2891C119.872 61.5839 119.876 63.8829 119.873 66.1786C119.42 66.1828 118.965 66.1751 118.513 66.1786C118.513 68.0205 118.513 69.8659 118.513 71.707C118.062 71.7146 117.605 71.7019 117.154 71.707V78.5964H118.513V80.0426H119.873V82.7647H121.232V89.6542H119.873C119.87 90.1061 119.876 90.5624 119.873 91.0152C119.421 91.0195 118.965 91.0118 118.513 91.0152V92.4614H117.154V93.8224H115.794V95.1834H114.35V96.5445H112.991V97.9055H108.955L108.828 98.0332V99.3517H96.5096V98.0332L96.3821 97.9055H93.7059V96.5445H90.9872V97.9055H89.6704C89.4383 98.269 89.5514 98.8954 89.5429 99.3517C89.0906 99.3559 88.635 99.3483 88.1836 99.3517C88.1785 99.8045 88.1912 100.261 88.1836 100.713C87.7322 100.72 87.2756 100.708 86.8242 100.713C86.8191 101.165 86.8319 101.622 86.8242 102.074C85.8908 102.081 84.954 102.069 84.0205 102.074V103.435H82.6612C82.6578 103.916 82.6663 104.4 82.6612 104.881C81.3036 104.887 79.9417 104.876 78.5832 104.881V106.114L78.2899 106.246C75.1598 106.235 72.0279 106.246 68.8978 106.242C68.8978 106.102 68.9658 104.881 68.8978 104.881H64.8198V103.562L64.6923 103.435H60.6568V102.074C59.7234 102.072 58.7865 102.076 57.8531 102.074C57.8455 101.622 57.8582 101.166 57.8531 100.713H56.4938V99.3517H55.1344V97.9055H53.7751V96.5445H52.4158V92.4622H51.0989L50.9714 92.3345V81.4053H44.0906V82.7664C33.5296 82.7485 22.9635 82.7902 12.4033 82.7664C12.3957 82.3144 12.4084 81.8573 12.4033 81.4053C11.0168 81.4011 9.62683 81.413 8.24029 81.4053C8.23264 80.9534 8.24539 80.4963 8.24029 80.0443C7.33577 80.0401 6.42614 80.052 5.52162 80.0443C5.51652 79.5634 5.52502 79.0791 5.52162 78.5982H4.16228V77.2371H2.80295V75.8761C2.32263 75.8727 1.83891 75.8812 1.3586 75.8761C1.35265 74.7261 1.22683 73.0885 1.35435 72.0015C1.3688 71.8781 1.36455 71.7827 1.48612 71.7078H2.80295V67.6256H4.16228C4.16568 67.1446 4.15718 66.6603 4.16228 66.1794C5.06681 66.1709 5.97643 66.1854 6.88096 66.1794V64.946L7.00847 64.8184H8.24029C8.24539 64.3664 8.23264 63.9102 8.24029 63.4573C9.17372 63.4548 10.1105 63.459 11.044 63.4573C11.0465 63.0045 11.0389 62.5483 11.044 62.0963C11.9485 62.0937 12.8573 62.098 13.7626 62.0963V60.7352H16.4388C16.6709 60.3718 16.5578 59.7453 16.5663 59.2891C17.4717 59.2865 18.3805 59.2908 19.285 59.2891V57.928C19.7364 57.9246 20.1921 57.9306 20.6435 57.928V56.567H26.1659C26.1718 56.115 26.1574 55.6579 26.1659 55.206C35.2706 55.2119 44.3771 55.1983 53.4826 55.2102L53.7759 55.0783V53.8449H56.4946V52.3988H52.4591L52.3316 52.5264V53.7598H26.2934C26.0613 54.1233 26.1744 54.7497 26.1659 55.206C22.5146 55.2034 18.8582 55.2077 15.207 55.206V53.8875L15.0795 53.7598H6.88181V52.3988C5.97728 52.3945 5.06766 52.4047 4.16313 52.3988C4.15888 51.9468 4.16653 51.4906 4.16313 51.0377H2.8038V48.3582L2.67628 48.2305H1.35945V41.3411H0.00181226C0.00691296 39.9817 -0.00413856 38.6181 0.00181226 37.2588C0.453224 37.2511 0.909737 37.2639 1.36115 37.2588V34.5793L1.48867 34.4516H2.8055V33.0906H4.16483V31.7295H5.52417V30.3685H6.88351V29.0074H8.24284V27.689L8.37036 27.5613H11.0465C11.0516 27.1093 11.0389 26.6531 11.0465 26.2002C11.9519 26.1977 12.8607 26.2019 13.7652 26.2002C13.7703 25.7474 13.7575 25.2912 13.7652 24.8392C15.1517 24.8324 16.5417 24.8443 17.9282 24.8392C17.9308 24.3864 17.9231 23.9301 17.9282 23.4782C18.8327 23.4739 19.7415 23.4816 20.6469 23.4782V22.1597L20.7744 22.032H24.8099C24.815 21.58 24.8023 21.1238 24.8099 20.671C26.1965 20.6684 27.5864 20.6727 28.9729 20.671C28.978 20.219 28.9653 19.7619 28.9729 19.3099C30.3306 19.3057 31.6925 19.3133 33.0509 19.3099V17.9489H38.5733V16.5878H62.0204V15.1417H64.8241V13.7806H66.1834V12.4196H67.5427V11.0586H68.9021C68.9055 10.5776 68.897 10.0933 68.9021 9.6124C69.3543 9.60899 69.81 9.61495 70.2614 9.6124C70.2665 9.16042 70.2538 8.70334 70.2614 8.25136C70.7417 8.24625 71.2254 8.25476 71.7057 8.25136V6.89032H74.4244C74.4278 6.43834 74.4202 5.98211 74.4244 5.52928C74.8767 5.52587 75.3315 5.53183 75.7838 5.52928V4.16824H77.1431V2.84976L77.2706 2.72208H79.9468C79.9519 2.2701 79.9391 1.81387 79.9468 1.36104C80.8522 1.35849 81.7609 1.36274 82.6655 1.36104C82.6706 0.909062 82.6578 0.451978 82.6655 0L82.6621 0.00510709ZM82.6621 12.423H79.9434V15.1451H82.6621V12.423ZM90.9872 12.423H88.1836V15.1451H90.9872V12.423Z" fill="#3B37FF"/>
</svg>
