<svg width="193" height="87" viewBox="0 0 193 87" fill="none" xmlns="http://www.w3.org/2000/svg">
<path d="M3.66793 36.5589C2.63886 36.5589 1.77228 36.261 1.06819 35.6652C0.36409 35.0694 0.012042 34.3112 0.012042 33.3904V3.16844C0.012042 2.30186 0.33701 1.57068 0.986945 0.974903C1.69104 0.324968 2.5847 0 3.66793 0C4.69699 0 5.53649 0.324968 6.18643 0.974903C6.83637 1.57068 7.16133 2.32894 7.16133 3.24968V33.3092C7.16133 34.2299 6.80928 35.0153 6.10519 35.6652C5.45525 36.261 4.64283 36.5589 3.66793 36.5589Z" fill="#3B37FF"/>
<path d="M17.4727 36.5589C16.4436 36.5589 15.5771 36.261 14.873 35.6652C14.1689 35.0694 13.8168 34.3112 13.8168 33.3904V14.9485C13.8168 14.0819 14.1418 13.3508 14.7917 12.755C15.4958 12.105 16.3895 11.7801 17.4727 11.7801C18.5559 11.7801 19.3954 12.105 19.9912 12.755C20.6411 13.3508 20.9661 14.109 20.9661 15.0298V33.3092C20.9661 34.2299 20.6141 35.0153 19.91 35.6652C19.26 36.261 18.4476 36.5589 17.4727 36.5589ZM17.4727 7.71798C16.3353 7.71798 15.3604 7.36594 14.548 6.66184C13.7356 5.90358 13.3294 4.95576 13.3294 3.81837C13.3294 2.78931 13.7356 1.89565 14.548 1.13739C15.3604 0.379129 16.3353 0 17.4727 0C18.5559 0 19.4767 0.379129 20.2349 1.13739C21.0474 1.89565 21.4536 2.78931 21.4536 3.81837C21.4536 4.95576 21.0474 5.90358 20.2349 6.66184C19.4767 7.36594 18.5559 7.71798 17.4727 7.71798Z" fill="#3B37FF"/>
<path d="M37.6956 36.5589C35.3667 36.5589 33.4439 35.8819 31.9274 34.5278C30.4109 33.1738 29.6527 31.0886 29.6527 28.2722V19.4981C29.6527 18.9565 29.3818 18.6856 28.8402 18.6856H27.6216C26.6467 18.6856 25.9155 18.3878 25.4281 17.792C24.9406 17.1962 24.6969 16.438 24.6969 15.5172C24.6969 14.5423 24.9406 13.757 25.4281 13.1612C25.9155 12.5113 26.6467 12.1863 27.6216 12.1863H28.8402C29.3818 12.1863 29.6527 11.9155 29.6527 11.3739V5.36197C29.6527 4.44123 29.9776 3.65589 30.6276 3.00595C31.2775 2.35602 32.117 2.03105 33.1461 2.03105C34.1751 2.03105 35.0146 2.35602 35.6646 3.00595C36.3687 3.60173 36.7207 4.38707 36.7207 5.36197V11.3739C36.7207 11.9155 36.9915 12.1863 37.5331 12.1863H40.5391C41.4598 12.1863 42.2181 12.5113 42.8139 13.1612C43.4638 13.8111 43.7888 14.5965 43.7888 15.5172C43.7888 16.438 43.4638 17.1962 42.8139 17.792C42.2181 18.3878 41.4327 18.6856 40.4578 18.6856H37.5331C36.9915 18.6856 36.7207 18.9565 36.7207 19.4981V27.1348C36.7207 28.1097 36.8832 28.7867 37.2082 29.1659C37.5873 29.545 38.0477 29.7346 38.5893 29.7346C38.8059 29.7346 39.2392 29.6804 39.8891 29.5721C40.5391 29.4096 40.9453 29.3283 41.1078 29.3283C41.9744 29.3283 42.7055 29.6533 43.3013 30.3032C43.8971 30.9532 44.195 31.7385 44.195 32.6593C44.195 33.3634 43.9783 34.0133 43.545 34.6091C43.1659 35.2048 42.543 35.6381 41.6765 35.9089C40.9724 36.1256 40.2954 36.2881 39.6454 36.3964C38.9955 36.5047 38.3455 36.5589 37.6956 36.5589Z" fill="#3B37FF"/>
<path d="M58.4028 36.5589C56.0738 36.5589 54.1511 35.8819 52.6346 34.5278C51.1181 33.1738 50.3598 31.0886 50.3598 28.2722V19.4981C50.3598 18.9565 50.089 18.6856 49.5474 18.6856H48.3288C47.3539 18.6856 46.6227 18.3878 46.1353 17.792C45.6478 17.1962 45.4041 16.438 45.4041 15.5172C45.4041 14.5423 45.6478 13.757 46.1353 13.1612C46.6227 12.5113 47.3539 12.1863 48.3288 12.1863H49.5474C50.089 12.1863 50.3598 11.9155 50.3598 11.3739V5.36197C50.3598 4.44123 50.6848 3.65589 51.3347 3.00595C51.9847 2.35602 52.8242 2.03105 53.8532 2.03105C54.8823 2.03105 55.7218 2.35602 56.3717 3.00595C57.0758 3.60173 57.4279 4.38707 57.4279 5.36197V11.3739C57.4279 11.9155 57.6987 12.1863 58.2403 12.1863H61.2462C62.167 12.1863 62.9253 12.5113 63.521 13.1612C64.171 13.8111 64.4959 14.5965 64.4959 15.5172C64.4959 16.438 64.171 17.1962 63.521 17.792C62.9253 18.3878 62.1399 18.6856 61.165 18.6856H58.2403C57.6987 18.6856 57.4279 18.9565 57.4279 19.4981V27.1348C57.4279 28.1097 57.5904 28.7867 57.9153 29.1659C58.2945 29.545 58.7548 29.7346 59.2964 29.7346C59.5131 29.7346 59.9464 29.6804 60.5963 29.5721C61.2463 29.4096 61.6525 29.3283 61.8149 29.3283C62.6815 29.3283 63.4127 29.6533 64.0085 30.3032C64.6043 30.9532 64.9021 31.7385 64.9021 32.6593C64.9021 33.3634 64.6855 34.0133 64.2522 34.6091C63.8731 35.2048 63.2502 35.6381 62.3836 35.9089C61.6795 36.1256 61.0025 36.2881 60.3526 36.3964C59.7027 36.5047 59.0527 36.5589 58.4028 36.5589Z" fill="#3B37FF"/>
<path d="M72.6918 36.5589C71.6628 36.5589 70.7962 36.261 70.0921 35.6652C69.388 35.0694 69.036 34.3112 69.036 33.3904V3.16844C69.036 2.30186 69.3609 1.57068 70.0109 0.974903C70.715 0.324968 71.6086 0 72.6918 0C73.7209 0 74.5604 0.324968 75.2103 0.974903C75.8603 1.57068 76.1852 2.32894 76.1852 3.24968V33.3092C76.1852 34.2299 75.8332 35.0153 75.1291 35.6652C74.4792 36.261 73.6667 36.5589 72.6918 36.5589Z" fill="#3B37FF"/>
<path d="M94.2146 36.5589C90.5316 36.5589 87.4174 35.4756 84.8718 33.3092C82.3804 31.0886 81.1347 28.0556 81.1347 24.2101C81.1347 20.2022 82.3533 17.0608 84.7905 14.786C87.282 12.5113 90.3962 11.3739 94.1334 11.3739C96.7873 11.3739 98.9808 11.8613 100.714 12.8362C102.447 13.8111 103.747 15.0568 104.614 16.5734C105.48 18.0899 105.913 19.6876 105.913 21.3666C105.913 24.183 104.668 25.5912 102.176 25.5912H88.6902C88.2569 25.5912 88.0402 25.862 88.0402 26.4036C88.0402 27.6493 88.7172 28.6513 90.0713 29.4096C91.4795 30.1137 93.0501 30.4657 94.7833 30.4657C95.8665 30.4657 96.9498 30.3303 98.033 30.0595C99.1162 29.7346 100.064 29.2742 100.876 28.6784C101.418 28.2993 101.987 28.1097 102.583 28.1097C103.395 28.1097 104.072 28.4076 104.614 29.0034C105.209 29.5991 105.507 30.3032 105.507 31.1157C105.507 32.0906 104.993 33.0113 103.964 33.8779C102.989 34.6903 101.553 35.3402 99.6578 35.8277C97.8163 36.3151 96.0019 36.5589 94.2146 36.5589ZM98.4392 20.8792C98.5475 20.8792 98.6829 20.8521 98.8454 20.7979C99.062 20.7438 99.1704 20.5542 99.1704 20.2292C99.1704 19.4168 98.6558 18.6856 97.6268 18.0357C96.6519 17.3316 95.3791 16.9796 93.8084 16.9796C92.1294 16.9796 90.7483 17.3587 89.6651 18.117C88.636 18.8211 88.1215 19.5522 88.1215 20.3105C88.1215 20.6896 88.3381 20.8792 88.7714 20.8792H98.4392Z" fill="#3B37FF"/>
<path d="M121.002 47.5265C119.486 47.5265 118.023 47.3641 116.615 47.0391C115.207 46.7683 113.934 46.335 112.797 45.7392C111.497 45.0351 110.847 43.9519 110.847 42.4895C110.847 41.5688 111.172 40.7564 111.822 40.0523C112.472 39.4023 113.23 39.0774 114.097 39.0774C114.801 39.0774 115.424 39.2399 115.965 39.5648C116.832 40.0523 117.725 40.4043 118.646 40.621C119.621 40.8376 120.569 40.9459 121.49 40.9459C123.548 40.9459 125.064 40.4856 126.039 39.5648C127.068 38.6441 127.583 37.4255 127.583 35.9089V34.0404C125.85 35.7194 123.71 36.5589 121.165 36.5589C117.536 36.5589 114.611 35.4215 112.391 33.1467C110.224 30.8178 109.141 27.7306 109.141 23.8851C109.141 20.0397 110.197 17.0066 112.309 14.786C114.476 12.5113 117.346 11.3739 120.921 11.3739C123.521 11.3739 125.768 12.3759 127.664 14.3798C127.827 13.6216 128.206 12.9987 128.801 12.5113C129.451 12.0238 130.237 11.7801 131.157 11.7801C132.241 11.7801 133.107 12.105 133.757 12.755C134.407 13.4049 134.732 14.2173 134.732 15.1922V36.0714C134.732 39.5377 133.513 42.3 131.076 44.3581C128.693 46.4704 125.335 47.5265 121.002 47.5265ZM121.733 29.9783C123.358 29.9783 124.658 29.4096 125.633 28.2722C126.662 27.0806 127.177 25.6183 127.177 23.8851C127.177 22.0978 126.662 20.6625 125.633 19.5793C124.658 18.4961 123.358 17.9545 121.733 17.9545C120.054 17.9545 118.7 18.4961 117.671 19.5793C116.696 20.6625 116.209 22.0978 116.209 23.8851C116.209 25.6183 116.696 27.0806 117.671 28.2722C118.7 29.4096 120.054 29.9783 121.733 29.9783Z" fill="#3B37FF"/>
<path d="M156.443 14.8673C156.443 13.8382 156.768 12.9987 157.418 12.3488C158.122 11.6988 158.988 11.3739 160.017 11.3739C161.046 11.3739 161.886 11.7259 162.536 12.43C163.24 13.08 163.592 13.8924 163.592 14.8673V26.3224C163.592 28.543 163.023 30.4386 161.886 32.0093C160.749 33.5258 159.286 34.6632 157.499 35.4215C155.712 36.1797 153.816 36.5589 151.812 36.5589C149.862 36.5589 147.994 36.1797 146.206 35.4215C144.419 34.6632 142.93 33.5258 141.738 32.0093C140.601 30.4386 140.032 28.543 140.032 26.3224V14.8673C140.032 13.8382 140.357 12.9987 141.007 12.3488C141.711 11.6988 142.577 11.3739 143.607 11.3739C144.636 11.3739 145.475 11.7259 146.125 12.43C146.829 13.08 147.181 13.8924 147.181 14.8673V25.9974C147.181 27.1348 147.614 28.0826 148.481 28.8409C149.348 29.5991 150.458 29.9783 151.812 29.9783C153.166 29.9783 154.276 29.5991 155.143 28.8409C156.009 28.0826 156.443 27.1348 156.443 25.9974V14.8673Z" fill="#3B37FF"/>
<path d="M167.277 14.6236C167.277 13.5403 167.656 12.7279 168.414 12.1863C169.172 11.6447 170.039 11.3739 171.014 11.3739C171.772 11.3739 172.422 11.5905 172.963 12.0238C173.559 12.4029 173.965 12.9446 174.182 13.6486L179.219 25.9162C179.49 26.6203 179.869 26.9723 180.356 26.9723C180.844 26.9723 181.196 26.6203 181.413 25.9162L185.8 13.6486C186.07 12.8904 186.504 12.3217 187.1 11.9426C187.749 11.5634 188.426 11.3739 189.131 11.3739C190.051 11.3739 190.891 11.6718 191.649 12.2675C192.461 12.8633 192.868 13.6486 192.868 14.6236C192.868 15.1652 192.759 15.6797 192.543 16.1671L179.869 45.4142C179.49 46.2267 179.002 46.7954 178.407 47.1203C177.865 47.4995 177.296 47.689 176.701 47.689C175.726 47.689 174.832 47.337 174.02 46.6329C173.261 45.9829 172.882 45.1976 172.882 44.2769C172.882 43.7894 172.991 43.3561 173.207 42.977L177.594 35.1778C176.673 34.907 175.942 34.2299 175.401 33.1467L167.52 16.0859C167.358 15.5985 167.277 15.111 167.277 14.6236Z" fill="#3B37FF"/>
<path d="M68.6856 86.2702C67.3857 86.2702 66.2754 85.864 65.3547 85.0516C64.4881 84.2392 64.0548 83.2643 64.0548 82.1269C64.0548 80.9354 64.4881 79.9063 65.3547 79.0397C66.2754 78.1731 67.3857 77.7398 68.6856 77.7398C69.8772 77.7398 70.8791 78.1731 71.6916 79.0397C72.5581 79.9063 72.9914 80.9354 72.9914 82.1269C72.9914 83.2643 72.5581 84.2392 71.6916 85.0516C70.8791 85.864 69.8772 86.2702 68.6856 86.2702Z" fill="#3B37FF"/>
<path d="M90.4553 85.0516C88.1263 85.0516 86.2036 84.3746 84.6871 83.0206C83.1706 81.6665 82.4123 79.5813 82.4123 76.7649V67.9908C82.4123 67.4492 82.1415 67.1784 81.5999 67.1784H80.3813C79.4064 67.1784 78.6752 66.8805 78.1877 66.2847C77.7003 65.689 77.4566 64.9307 77.4566 64.01C77.4566 63.035 77.7003 62.2497 78.1877 61.6539C78.6752 61.004 79.4064 60.679 80.3813 60.679H81.5999C82.1415 60.679 82.4123 60.4082 82.4123 59.8666V53.8547C82.4123 52.934 82.7373 52.1486 83.3872 51.4987C84.0372 50.8488 84.8767 50.5238 85.9057 50.5238C86.9348 50.5238 87.7743 50.8488 88.4242 51.4987C89.1283 52.0945 89.4804 52.8798 89.4804 53.8547V59.8666C89.4804 60.4082 89.7512 60.679 90.2928 60.679H93.2988C94.2195 60.679 94.9777 61.004 95.5735 61.6539C96.2235 62.3039 96.5484 63.0892 96.5484 64.01C96.5484 64.9307 96.2235 65.689 95.5735 66.2847C94.9777 66.8805 94.1924 67.1784 93.2175 67.1784H90.2928C89.7512 67.1784 89.4804 67.4492 89.4804 67.9908V75.6276C89.4804 76.6025 89.6429 77.2795 89.9678 77.6586C90.347 78.0377 90.8073 78.2273 91.3489 78.2273C91.5656 78.2273 91.9989 78.1731 92.6488 78.0648C93.2987 77.9023 93.705 77.8211 93.8674 77.8211C94.734 77.8211 95.4652 78.1461 96.061 78.796C96.6567 79.4459 96.9546 80.2313 96.9546 81.152C96.9546 81.8561 96.738 82.506 96.3047 83.1018C95.9256 83.6976 95.3027 84.1309 94.4361 84.4017C93.732 84.6183 93.055 84.7808 92.4051 84.8891C91.7552 84.9975 91.1052 85.0516 90.4553 85.0516Z" fill="#3B37FF"/>
<path d="M112.219 85.0516C109.89 85.0516 107.75 84.51 105.8 83.4268C103.851 82.3436 102.28 80.8541 101.088 78.9585C99.9511 77.0087 99.3824 74.8151 99.3824 72.3779C99.3824 69.8865 99.9511 67.72 101.088 65.8785C102.28 63.9829 103.851 62.5205 105.8 61.4915C107.75 60.4082 109.89 59.8666 112.219 59.8666C114.602 59.8666 116.741 60.4082 118.637 61.4915C120.587 62.5205 122.13 63.9829 123.268 65.8785C124.405 67.72 124.974 69.8865 124.974 72.3779C124.974 74.8151 124.405 77.0087 123.268 78.9585C122.13 80.8541 120.587 82.3436 118.637 83.4268C116.741 84.51 114.602 85.0516 112.219 85.0516ZM112.219 78.471C113.898 78.471 115.252 77.9023 116.281 76.7649C117.364 75.5734 117.906 74.111 117.906 72.3779C117.906 70.5906 117.364 69.1553 116.281 68.0721C115.252 66.9888 113.898 66.4472 112.219 66.4472C110.594 66.4472 109.213 66.9888 108.075 68.0721C106.992 69.1553 106.45 70.5906 106.45 72.3779C106.45 74.111 106.992 75.5734 108.075 76.7649C109.213 77.9023 110.594 78.471 112.219 78.471Z" fill="#3B37FF"/>
<path d="M136.161 85.0516C135.132 85.0516 134.184 84.7537 133.317 84.158C132.505 83.5622 131.963 82.6685 131.693 81.477L126.818 64.4162C126.764 64.1995 126.71 64.01 126.656 63.8475C126.656 63.685 126.656 63.5225 126.656 63.36C126.656 62.3851 127.008 61.5727 127.712 60.9228C128.416 60.2187 129.282 59.8666 130.311 59.8666C132.099 59.8666 133.182 60.679 133.561 62.3039L136.08 74.2464C136.242 74.8422 136.486 75.1401 136.811 75.1401C137.19 75.1401 137.461 74.8693 137.623 74.3277L141.117 64.01C141.442 63.0892 141.956 62.4122 142.66 61.9789C143.364 61.5456 144.095 61.329 144.854 61.329C145.612 61.329 146.343 61.5456 147.047 61.9789C147.806 62.4122 148.293 63.0892 148.51 64.01L151.922 74.3277C152.084 74.8693 152.328 75.1401 152.653 75.1401C152.978 75.1401 153.222 74.8422 153.384 74.2464L155.903 62.3039C156.282 60.679 157.365 59.8666 159.152 59.8666C160.181 59.8666 161.048 60.2187 161.752 60.9228C162.456 61.5727 162.808 62.3851 162.808 63.36C162.808 63.5225 162.781 63.685 162.727 63.8475C162.727 64.01 162.7 64.1995 162.646 64.4162L157.771 81.477C157.446 82.6685 156.85 83.5622 155.984 84.158C155.171 84.7537 154.251 85.0516 153.222 85.0516C152.301 85.0516 151.434 84.7808 150.622 84.2392C149.81 83.6434 149.187 82.7498 148.753 81.5582L145.504 71.9717C145.341 71.3759 145.097 71.078 144.772 71.078C144.393 71.078 144.123 71.3759 143.96 71.9717L140.71 81.5582C140.331 82.7498 139.708 83.6434 138.842 84.2392C138.029 84.7808 137.136 85.0516 136.161 85.0516Z" fill="#3B37FF"/>
<path d="M187.249 85.0516C186.22 85.0516 185.354 84.7537 184.65 84.158C184 83.5622 183.675 82.8039 183.675 81.8832V71.9717C183.675 69.9677 183.214 68.5324 182.294 67.6658C181.427 66.7993 180.344 66.366 179.044 66.366C177.69 66.366 176.552 66.7993 175.632 67.6658C174.765 68.5324 174.224 69.5344 174.007 70.6718V81.5582C174.007 82.479 173.655 83.2643 172.951 83.9142C172.301 84.51 171.488 84.8079 170.513 84.8079C169.484 84.8079 168.618 84.51 167.914 83.9142C167.21 83.3185 166.858 82.5602 166.858 81.6395V63.4413C166.858 62.5747 167.183 61.8435 167.833 61.2477C168.537 60.5978 169.43 60.2728 170.513 60.2728C171.38 60.2728 172.111 60.5165 172.707 61.004C173.303 61.4373 173.709 62.006 173.926 62.7101C175.388 60.8144 177.609 59.8666 180.588 59.8666C183.621 59.8666 186.085 60.7603 187.981 62.5476C189.876 64.3349 190.824 67.1784 190.824 71.078V82.0457C190.824 82.9122 190.472 83.6434 189.768 84.2392C189.118 84.7808 188.278 85.0516 187.249 85.0516Z" fill="#3B37FF"/>
<path fill-rule="evenodd" clip-rule="evenodd" d="M24.0249 49.4723C37.2935 49.4723 48.0498 60.2286 48.0498 73.4972V83.4309C48.0497 84.324 47.3258 85.0479 46.4327 85.048H1.61718C0.724107 85.048 2.04814e-05 84.324 0 83.4309V73.4972C5.92726e-06 60.2286 10.7563 49.4723 24.0249 49.4723ZM23.8578 64.0259C20.6329 64.026 18.0185 66.6404 18.0185 69.8654V80.1967C18.0185 80.3754 18.1634 80.5202 18.342 80.5202H29.3738C29.5524 80.5202 29.6973 80.3754 29.6973 80.1967V69.8654C29.6973 66.6404 27.0828 64.0259 23.8578 64.0259Z" fill="#3B37FF"/>
<path d="M28.6963 72.7582C28.6963 73.4726 28.0987 74.0518 27.3616 74.0518C26.6244 74.0518 26.0269 73.4726 26.0269 72.7582C26.0269 72.0437 26.6244 71.4645 27.3616 71.4645C28.0987 71.4645 28.6963 72.0437 28.6963 72.7582Z" fill="#3B37FF"/>
</svg>
